<svg width="124" height="73" viewBox="0 0 124 73" fill="none" xmlns="http://www.w3.org/2000/svg">
<g clip-path="url(#clip0_16:44)">
<path d="M79.6667 11.4286V8H74.3334V11.4285H47.6666V8H42.3333V11.4285H33V29.7143H42.3333V40H47.6666V29.7143H74.3334V40H79.6667V29.7143H89V11.4286H79.6667ZM47.0593 22.7966H45.8713L45.1306 21.2L44.3972 22.7966H43.2093L41.1708 18.3338H42.7181L43.8473 21.3949L44.2066 20.4646L43.3634 18.3337H44.6759L45.1306 19.7102L45.5926 18.3337H46.9054L46.0472 20.4646L46.4212 21.3949L47.5434 18.3338H49.098L47.0593 22.7966ZM53.5348 22.7966H53.5347H49.8243V18.3338H53.4688V19.4023H51.2542V20.0309H53.1461V21.0241H51.2542V21.7281H53.5348V22.7966ZM58.3599 22.7966H54.5688V18.3338H55.9987V21.7281H58.3599V22.7966ZM63.365 22.2372C63.206 22.3671 63.0252 22.476 62.8223 22.5639C62.6195 22.652 62.4018 22.7189 62.1697 22.7652C61.9373 22.8111 61.7113 22.8342 61.4912 22.8342C61.1051 22.8342 60.7516 22.7682 60.4316 22.6362C60.1113 22.5042 59.8349 22.3293 59.603 22.1113C59.3706 21.8937 59.1909 21.6463 59.0638 21.3698C58.9368 21.0932 58.8732 20.8124 58.8732 20.5275C58.8732 20.2551 58.9328 19.987 59.0529 19.723C59.1723 19.4589 59.3471 19.2222 59.5771 19.0127C59.8068 18.8033 60.0855 18.6335 60.4131 18.5036C60.7407 18.3736 61.1147 18.3088 61.5353 18.3088C62.0386 18.3088 62.4751 18.3978 62.8441 18.5758C63.2134 18.7542 63.4883 18.9897 63.6692 19.283L62.5767 19.9493C62.5279 19.8403 62.4629 19.7503 62.3822 19.6791C62.3017 19.6079 62.2124 19.5513 62.1144 19.5094C62.0169 19.4676 61.9152 19.4383 61.8102 19.4213C61.705 19.4046 61.6038 19.3962 61.5059 19.3962C61.3007 19.3962 61.1234 19.4307 60.9744 19.4998C60.8252 19.5689 60.703 19.6593 60.6078 19.7701C60.5124 19.8812 60.4414 20.0069 60.3949 20.1473C60.3482 20.2877 60.3252 20.427 60.3252 20.5653C60.3252 20.7203 60.352 20.8691 60.4059 21.0115C60.4597 21.154 60.5379 21.2798 60.6406 21.3887C60.7434 21.4977 60.8693 21.5846 61.0185 21.6495C61.1675 21.7144 61.3349 21.747 61.5208 21.747C61.6184 21.747 61.7187 21.7376 61.8214 21.7187C61.9241 21.6999 62.023 21.6686 62.1186 21.6246C62.214 21.5804 62.2993 21.5239 62.3751 21.4549C62.4507 21.3857 62.5108 21.3009 62.5548 21.2003L63.7209 21.7975C63.6424 21.9606 63.524 22.1072 63.365 22.2372ZM69.3161 21.4295C69.1841 21.6997 69.0008 21.9387 68.7661 22.146C68.5313 22.3535 68.2516 22.52 67.9262 22.6458C67.6011 22.7715 67.2455 22.8342 66.8592 22.8342C66.4634 22.8342 66.104 22.7694 65.7813 22.6394C65.4587 22.5096 65.1824 22.3389 64.9527 22.1272C64.7227 21.9157 64.5443 21.6736 64.4172 21.4011C64.2901 21.1288 64.2266 20.848 64.2266 20.5588C64.2266 20.2657 64.2924 19.9827 64.4244 19.7103C64.5564 19.438 64.7408 19.1981 64.9781 18.9905C65.2153 18.7832 65.4963 18.6176 65.8216 18.4939C66.1466 18.3703 66.5022 18.3086 66.8885 18.3086C67.2844 18.3086 67.6438 18.3734 67.9664 18.5034C68.2891 18.6333 68.5654 18.8051 68.795 19.0188C69.0251 19.2326 69.2021 19.4757 69.3268 19.748C69.4516 20.0204 69.5137 20.2991 69.5137 20.584C69.514 20.8774 69.4481 21.1592 69.3161 21.4295ZM75.8574 22.7965H74.4274V20.4457L73.5547 22.0988H72.7919L71.9192 20.4457V22.7965H70.4894V18.3336H72.0514L73.1735 20.433L74.3027 18.3336H75.8574V22.7965ZM80.8294 22.7966H80.8293H77.1188V18.3338H80.7633V19.4023H78.5488V20.0309H80.4406V21.0241H78.5488V21.7281H80.8294V22.7966Z" fill="white"/>
<path d="M70.9887 20.1222C70.9399 19.9818 70.8653 19.8582 70.7651 19.7512C70.6649 19.6443 70.5401 19.5586 70.3912 19.4935C70.242 19.4286 70.0672 19.396 69.8666 19.396C69.6614 19.396 69.4842 19.4296 69.3352 19.4966C69.186 19.5637 69.0625 19.6527 68.9649 19.7638C68.8671 19.8749 68.795 20.0006 68.7485 20.1409C68.7018 20.2814 68.6787 20.4248 68.6787 20.5715C68.6787 20.7224 68.7032 20.8681 68.7522 21.0083C68.8009 21.1487 68.8744 21.2733 68.9722 21.3823C69.0697 21.4913 69.1932 21.5794 69.3424 21.6464C69.4914 21.7135 69.6687 21.747 69.8742 21.747C70.0794 21.747 70.2578 21.7124 70.4094 21.6433C70.5609 21.5742 70.6844 21.484 70.7796 21.373C70.8747 21.262 70.9457 21.1352 70.9924 20.9927C71.0388 20.8502 71.0619 20.7057 71.0619 20.559C71.062 20.4083 71.0374 20.2625 70.9887 20.1222Z" fill="white"/>
</g>
<path d="M5.36 64.312L3.584 66.136V69H1.504V57.8H3.584V63.544L9.12 57.8H11.456L6.752 62.808L11.744 69H9.312L5.36 64.312ZM17.986 69.16C16.8447 69.16 15.8153 68.9147 14.898 68.424C13.9807 67.9227 13.2607 67.2347 12.738 66.36C12.2153 65.4747 11.954 64.488 11.954 63.4C11.954 62.312 12.2153 61.3307 12.738 60.456C13.2607 59.5707 13.9807 58.8827 14.898 58.392C15.8153 57.8907 16.8447 57.64 17.986 57.64C19.1273 57.64 20.1567 57.8907 21.074 58.392C21.9913 58.8827 22.7113 59.5653 23.234 60.44C23.7567 61.3147 24.018 62.3013 24.018 63.4C24.018 64.4987 23.7567 65.4853 23.234 66.36C22.7113 67.2347 21.9913 67.9227 21.074 68.424C20.1567 68.9147 19.1273 69.16 17.986 69.16ZM17.986 67.336C18.7327 67.336 19.4047 67.1707 20.002 66.84C20.5993 66.4987 21.0687 66.0293 21.41 65.432C21.7513 64.824 21.922 64.1467 21.922 63.4C21.922 62.6533 21.7513 61.9813 21.41 61.384C21.0687 60.776 20.5993 60.3067 20.002 59.976C19.4047 59.6347 18.7327 59.464 17.986 59.464C17.2393 59.464 16.5673 59.6347 15.97 59.976C15.3727 60.3067 14.9033 60.776 14.562 61.384C14.2207 61.9813 14.05 62.6533 14.05 63.4C14.05 64.1467 14.2207 64.824 14.562 65.432C14.9033 66.0293 15.3727 66.4987 15.97 66.84C16.5673 67.1707 17.2393 67.336 17.986 67.336ZM29.6948 69.16C28.8308 69.16 27.9934 69.0373 27.1828 68.792C26.3828 68.5467 25.7481 68.2213 25.2788 67.816L25.9988 66.2C26.4574 66.5627 27.0174 66.8613 27.6788 67.096C28.3508 67.32 29.0228 67.432 29.6948 67.432C30.5268 67.432 31.1454 67.2987 31.5508 67.032C31.9668 66.7653 32.1748 66.4133 32.1748 65.976C32.1748 65.656 32.0574 65.3947 31.8228 65.192C31.5988 64.9787 31.3108 64.8133 30.9588 64.696C30.6068 64.5787 30.1268 64.4453 29.5188 64.296C28.6654 64.0933 27.9721 63.8907 27.4388 63.688C26.9161 63.4853 26.4628 63.1707 26.0788 62.744C25.7054 62.3067 25.5188 61.72 25.5188 60.984C25.5188 60.3653 25.6841 59.8053 26.0148 59.304C26.3561 58.792 26.8628 58.3867 27.5348 58.088C28.2174 57.7893 29.0494 57.64 30.0308 57.64C30.7134 57.64 31.3854 57.7253 32.0468 57.896C32.7081 58.0667 33.2788 58.312 33.7587 58.632L33.1028 60.248C32.6121 59.96 32.1001 59.7413 31.5668 59.592C31.0334 59.4427 30.5161 59.368 30.0148 59.368C29.1934 59.368 28.5801 59.5067 28.1748 59.784C27.7801 60.0613 27.5828 60.4293 27.5828 60.888C27.5828 61.208 27.6948 61.4693 27.9188 61.672C28.1534 61.8747 28.4468 62.0347 28.7988 62.152C29.1508 62.2693 29.6308 62.4027 30.2388 62.552C31.0708 62.744 31.7534 62.9467 32.2868 63.16C32.8201 63.3627 33.2734 63.6773 33.6468 64.104C34.0308 64.5307 34.2228 65.1067 34.2228 65.832C34.2228 66.4507 34.0521 67.0107 33.7108 67.512C33.3801 68.0133 32.8734 68.4133 32.1908 68.712C31.5081 69.0107 30.6761 69.16 29.6948 69.16ZM46.2373 57.8V69H44.1573V64.2H38.3653V69H36.2853V57.8H38.3653V62.424H44.1573V57.8H46.2373ZM53.0944 64.312L51.3184 66.136V69H49.2384V57.8H51.3184V63.544L56.8544 57.8H59.1904L54.4864 62.808L59.4784 69H57.0464L53.0944 64.312ZM69.2946 67.256V69H60.8946V57.8H69.0706V59.544H62.9746V62.456H68.3826V64.168H62.9746V67.256H69.2946ZM71.6134 57.8H73.6934V67.24H79.5494V69H71.6134V57.8ZM82.1239 69.112C81.7612 69.112 81.4519 68.9893 81.1959 68.744C80.9399 68.488 80.8119 68.168 80.8119 67.784C80.8119 67.3893 80.9345 67.0693 81.1799 66.824C81.4359 66.5787 81.7505 66.456 82.1239 66.456C82.4972 66.456 82.8065 66.5787 83.0519 66.824C83.3079 67.0693 83.4359 67.3893 83.4359 67.784C83.4359 68.168 83.3079 68.488 83.0519 68.744C82.7959 68.9893 82.4865 69.112 82.1239 69.112ZM90.4536 69.16C89.323 69.16 88.299 68.9147 87.3816 68.424C86.475 67.9227 85.7603 67.2347 85.2376 66.36C84.7256 65.4853 84.4696 64.4987 84.4696 63.4C84.4696 62.3013 84.731 61.3147 85.2536 60.44C85.7763 59.5653 86.491 58.8827 87.3976 58.392C88.315 57.8907 89.339 57.64 90.4696 57.64C91.387 57.64 92.2243 57.8 92.9816 58.12C93.739 58.44 94.379 58.904 94.9016 59.512L93.5576 60.776C92.747 59.9013 91.7496 59.464 90.5656 59.464C89.7976 59.464 89.1096 59.6347 88.5016 59.976C87.8936 60.3067 87.419 60.7707 87.0776 61.368C86.7363 61.9653 86.5656 62.6427 86.5656 63.4C86.5656 64.1573 86.7363 64.8347 87.0776 65.432C87.419 66.0293 87.8936 66.4987 88.5016 66.84C89.1096 67.1707 89.7976 67.336 90.5656 67.336C91.7496 67.336 92.747 66.8933 93.5576 66.008L94.9016 67.288C94.379 67.896 93.7336 68.36 92.9656 68.68C92.2083 69 91.371 69.16 90.4536 69.16ZM101.892 69.16C100.751 69.16 99.7216 68.9147 98.8043 68.424C97.8869 67.9227 97.1669 67.2347 96.6443 66.36C96.1216 65.4747 95.8603 64.488 95.8603 63.4C95.8603 62.312 96.1216 61.3307 96.6443 60.456C97.1669 59.5707 97.8869 58.8827 98.8043 58.392C99.7216 57.8907 100.751 57.64 101.892 57.64C103.034 57.64 104.063 57.8907 104.98 58.392C105.898 58.8827 106.618 59.5653 107.14 60.44C107.663 61.3147 107.924 62.3013 107.924 63.4C107.924 64.4987 107.663 65.4853 107.14 66.36C106.618 67.2347 105.898 67.9227 104.98 68.424C104.063 68.9147 103.034 69.16 101.892 69.16ZM101.892 67.336C102.639 67.336 103.311 67.1707 103.908 66.84C104.506 66.4987 104.975 66.0293 105.316 65.432C105.658 64.824 105.828 64.1467 105.828 63.4C105.828 62.6533 105.658 61.9813 105.316 61.384C104.975 60.776 104.506 60.3067 103.908 59.976C103.311 59.6347 102.639 59.464 101.892 59.464C101.146 59.464 100.474 59.6347 99.8763 59.976C99.2789 60.3067 98.8096 60.776 98.4683 61.384C98.1269 61.9813 97.9563 62.6533 97.9563 63.4C97.9563 64.1467 98.1269 64.824 98.4683 65.432C98.8096 66.0293 99.2789 66.4987 99.8763 66.84C100.474 67.1707 101.146 67.336 101.892 67.336ZM120.417 69L120.401 61.576L116.721 67.72H115.793L112.113 61.672V69H110.129V57.8H111.841L116.289 65.224L120.657 57.8H122.369L122.385 69H120.417Z" fill="white"/>
<defs>
<clipPath id="clip0_16:44">
<rect width="56" height="48" fill="white" transform="translate(36)"/>
</clipPath>
</defs>
</svg>
